<svg width="401" height="402" xmlns="http://www.w3.org/2000/svg" xmlns:xlink="http://www.w3.org/1999/xlink" xml:space="preserve" overflow="hidden"><g transform="translate(-752 -130)"><path d="M378.444 334.167 215.12 50.125C208.854 38.8469 192.564 38.8469 186.298 50.125L22.5563 334.167C16.2906 345.445 24.2271 359.229 37.176 359.229L200.5 359.229 363.824 359.229C376.773 359.229 384.709 345.445 378.444 334.167ZM187.969 116.958 213.031 116.958 213.031 263.156 187.969 263.156 187.969 116.958ZM200.5 321.635C188.804 321.635 179.615 312.446 179.615 300.75 179.615 289.054 188.804 279.865 200.5 279.865 212.196 279.865 221.385 289.054 221.385 300.75 221.385 312.446 212.196 321.635 200.5 321.635Z" transform="matrix(1 0 0 1.00249 752 130)"/></g></svg>