<svg width="88" height="88" xmlns="http://www.w3.org/2000/svg" xmlns:xlink="http://www.w3.org/1999/xlink" xml:space="preserve" overflow="hidden"><g transform="translate(-504 -423)"><path d="M568.258 441.333 568.258 472.5 552.858 457.1 568.258 441.333ZM534.342 438.583 565.783 438.583 550.292 454.625 534.342 438.583ZM533.425 488.267 530.125 484.967 533.425 477.817 536.725 484.967 533.425 488.267ZM535.992 490.925 538.375 488.542 542.592 497.525 535.992 490.925ZM524.258 497.433 528.475 488.45 530.858 490.833 524.258 497.433ZM533.425 493.4 539.108 499.083 527.742 499.083 533.425 493.4ZM576.6 480.933 571.925 476.167 571.925 440.417 572.842 439.5C574.4 437.942 574.4 435.558 572.842 434 571.283 432.442 568.9 432.442 567.342 434L566.425 434.917 530.675 434.917 526.917 431.25C524.075 436.383 522.425 442.433 522.425 448.758 522.425 458.108 525.908 466.542 531.592 473.05L519.583 498.9C519.217 499.725 519.217 500.733 519.767 501.558 520.317 502.383 521.142 502.842 522.058 502.842L544.883 502.842C545.8 502.842 546.717 502.383 547.175 501.558 547.633 500.733 547.725 499.817 547.358 498.9L537.825 478.55C543.875 482.767 551.208 485.333 559.092 485.333 565.417 485.425 571.375 483.683 576.6 480.933Z"/></g></svg>