<svg width="93" height="93" xmlns="http://www.w3.org/2000/svg" xmlns:xlink="http://www.w3.org/1999/xlink" xml:space="preserve" overflow="hidden"><g transform="translate(-613 -201)"><path d="M667.163 254.417C667.163 252.614 665.701 251.152 663.898 251.152 662.095 251.152 660.633 252.614 660.633 254.417 660.633 256.22 662.095 257.682 663.898 257.682 665.701 257.682 667.163 256.22 667.163 254.417Z"/><path d="M654.947 251.162C653.144 251.157 651.678 252.614 651.672 254.417 651.667 256.22 653.124 257.686 654.927 257.691 656.731 257.697 658.197 256.239 658.202 254.436 658.202 254.43 658.202 254.423 658.202 254.417 658.197 252.621 656.742 251.167 654.947 251.162Z"/><path d="M660.139 258.466C659.905 258.07 659.394 257.939 658.998 258.174 658.878 258.245 658.777 258.346 658.706 258.466L657.737 260.074C657.501 260.476 657.636 260.992 658.038 261.228 658.167 261.303 658.314 261.343 658.463 261.343L660.401 261.343C660.866 261.327 661.229 260.936 661.213 260.471 661.208 260.339 661.172 260.209 661.108 260.094Z"/><path d="M700.72 278.5 662.862 212.625C661.797 210.768 659.429 210.126 657.573 211.191 656.976 211.533 656.481 212.028 656.138 212.625L618.28 278.5C617.21 280.353 617.845 282.723 619.698 283.793 620.286 284.133 620.953 284.312 621.632 284.312L697.368 284.312C699.508 284.31 701.242 282.574 701.239 280.434 701.239 279.755 701.06 279.088 700.72 278.5ZM641.22 255.105C641.446 254.883 641.722 254.717 642.024 254.62 641.487 253.633 641.851 252.398 642.838 251.861 643.825 251.324 645.06 251.688 645.597 252.675 645.865 253.167 645.918 253.749 645.744 254.281L647.943 255.25C648.46 256.655 649.207 257.964 650.152 259.125L650.152 259.803 644.542 257.304C644.434 257.543 644.287 257.762 644.107 257.953 643.304 258.755 642.003 258.755 641.2 257.953 640.398 257.15 640.398 255.849 641.2 255.047ZM653.416 266.061 645.424 269.122C645.525 269.369 645.577 269.632 645.579 269.897 645.579 271.021 644.668 271.932 643.545 271.932 642.421 271.932 641.51 271.021 641.51 269.897 641.509 269.58 641.585 269.268 641.733 268.987 640.662 268.649 640.067 267.506 640.405 266.435 640.743 265.363 641.886 264.769 642.958 265.107 643.462 265.266 643.884 265.615 644.136 266.081L650.994 263.455C651.601 264.082 652.438 264.433 653.31 264.424L653.416 264.424ZM663.491 263.785 663.491 267.04 661.864 267.04 661.864 264.598 660.236 264.598 660.236 267.04 658.609 267.04 658.609 264.598 656.981 264.598 656.981 267.04 655.354 267.04 655.354 263.785C655.349 263.113 654.805 262.569 654.133 262.564L653.31 262.564C652.646 262.575 652.1 262.046 652.089 261.382 652.089 261.37 652.089 261.356 652.089 261.343L652.089 258.902C652.088 258.621 651.992 258.348 651.818 258.127 650.136 256.272 649.216 253.85 649.241 251.346 649.241 245.175 653.813 240.147 659.422 240.147 665.032 240.147 669.604 245.194 669.604 251.375 669.629 253.879 668.709 256.301 667.027 258.156 666.846 258.374 666.746 258.648 666.746 258.931L666.746 261.372C666.763 262.03 666.242 262.577 665.585 262.593 665.565 262.594 665.545 262.594 665.526 262.593L664.712 262.593C664.051 262.598 663.512 263.124 663.491 263.785ZM677.209 269.21C676.986 269.431 676.714 269.597 676.414 269.694 676.945 270.684 676.572 271.917 675.582 272.448 674.592 272.979 673.359 272.606 672.828 271.616 672.544 271.085 672.509 270.456 672.733 269.897L665.429 266.643 665.429 264.502 665.526 264.502C666.173 264.517 666.81 264.331 667.347 263.969L673.954 266.875C674.438 265.861 675.653 265.432 676.667 265.917 677.68 266.402 678.109 267.616 677.625 268.63 677.521 268.846 677.38 269.042 677.209 269.21ZM676.114 259.309C675.302 259.307 674.568 258.824 674.244 258.079L668.693 260.21 668.693 259.125C669.476 258.156 670.128 257.087 670.631 255.948L672.985 255.047C672.911 254.835 672.872 254.612 672.869 254.388 672.869 253.264 673.78 252.353 674.903 252.353 676.027 252.353 676.938 253.264 676.938 254.388 676.941 254.724 676.865 255.056 676.715 255.357 677.79 255.662 678.414 256.782 678.109 257.858 677.857 258.742 677.042 259.345 676.124 259.328Z"/></g></svg>