<?xml version="1.0"?>
<svg width="1080" height="1080" xmlns="http://www.w3.org/2000/svg" xmlns:svg="http://www.w3.org/2000/svg" version="1.1" xml:space="preserve">
 <desc>Created with Fabric.js 5.2.4</desc>

 <g class="layer">
  <title>Layer 1</title>
  <g id="9f1eb05b-ef1d-4766-a68b-47fe6b058104" transform="matrix(1 0 0 1 540 540)"/>
  <g id="b7ffadbf-535e-4484-bd43-b06b41ba77ac" transform="matrix(1 0 0 1 540 540)">
   <rect fill="rgb(255,255,255)" fill-rule="nonzero" height="1080" id="svg_2" stroke-dashoffset="0" stroke-miterlimit="4" width="1080" x="-540" y="-540"/>
  </g>
  <g id="svg_3" transform="matrix(2.4 0 0 2.4 907.75 1018.35)">
   <path d="m94.75,50c0,6.21 -5.24,11.25 -11.7,11.25l-66.1,0c-6.46,0 -11.7,-5.04 -11.7,-11.25l0,0c0,-6.21 5.24,-11.25 11.7,-11.25l66.1,0c6.46,0 11.7,5.04 11.7,11.25l0,0z" fill="rgb(0,0,0)" fill-rule="nonzero" id="svg_4" stroke="rgb(0,0,0)" stroke-dashoffset="0" stroke-miterlimit="4" stroke-width="0" transform=" translate(-50, -50)"/>
  </g>
  <g id="svg_5" transform="matrix(2.4 0 0 2.4 175.15 1016.56)">
   <path d="m94.75,50c0,6.21 -5.24,11.25 -11.7,11.25l-66.1,0c-6.46,0 -11.7,-5.04 -11.7,-11.25l0,0c0,-6.21 5.24,-11.25 11.7,-11.25l66.1,0c6.46,0 11.7,5.04 11.7,11.25l0,0z" fill="rgb(0,0,0)" fill-rule="nonzero" id="svg_6" stroke="rgb(0,0,0)" stroke-dashoffset="0" stroke-miterlimit="4" stroke-width="0" transform=" translate(-50, -50)"/>
  </g>
  <g id="svg_7" transform="matrix(2.4 0 0 2.4 139.87 94.7)">
   <path d="m94.75,50c0,6.21 -5.24,11.25 -11.7,11.25l-66.1,0c-6.46,0 -11.7,-5.04 -11.7,-11.25l0,0c0,-6.21 5.24,-11.25 11.7,-11.25l66.1,0c6.46,0 11.7,5.04 11.7,11.25l0,0z" fill="rgb(0,0,0)" fill-rule="nonzero" id="svg_8" stroke="rgb(0,0,0)" stroke-dashoffset="0" stroke-miterlimit="4" stroke-width="0" transform=" translate(-50, -50)"/>
  </g>
  <g id="svg_9" transform="matrix(0 0 0 0 0 0)">
   <g id="svg_10"/>
  </g>
  <g id="svg_11" transform="matrix(0 0 0 0 0 0)">
   <g id="svg_12"/>
  </g>
  <g id="svg_13" transform="matrix(2.4 0 0 2.4 905.03 94.52)">
   <path d="m94.75,50c0,6.21 -5.24,11.25 -11.7,11.25l-66.1,0c-6.46,0 -11.7,-5.04 -11.7,-11.25l0,0c0,-6.21 5.24,-11.25 11.7,-11.25l66.1,0c6.46,0 11.7,5.04 11.7,11.25l0,0z" fill="rgb(0,0,0)" fill-rule="nonzero" id="svg_14" stroke="rgb(0,0,0)" stroke-dashoffset="0" stroke-miterlimit="4" stroke-width="0" transform=" translate(-50, -50)"/>
  </g>
  <g id="svg_15" transform="matrix(0 2.4 -2.4 0 988.7 938.55)">
   <path d="m94.75,50c0,6.21 -5.24,11.25 -11.7,11.25l-66.1,0c-6.46,0 -11.7,-5.04 -11.7,-11.25l0,0c0,-6.21 5.24,-11.25 11.7,-11.25l66.1,0c6.46,0 11.7,5.04 11.7,11.25l0,0z" fill="rgb(0,0,0)" fill-rule="nonzero" id="svg_16" stroke="rgb(0,0,0)" stroke-dashoffset="0" stroke-miterlimit="4" stroke-width="0" transform=" translate(-50, -50)"/>
  </g>
  <g id="svg_17" transform="matrix(0 2.4 -2.4 0 988.76 176.19)">
   <path d="m94.75,50c0,6.21 -5.24,11.25 -11.7,11.25l-66.1,0c-6.46,0 -11.7,-5.04 -11.7,-11.25l0,0c0,-6.21 5.24,-11.25 11.7,-11.25l66.1,0c6.46,0 11.7,5.04 11.7,11.25l0,0z" fill="rgb(0,0,0)" fill-rule="nonzero" id="svg_18" stroke="rgb(0,0,0)" stroke-dashoffset="0" stroke-miterlimit="4" stroke-width="0" transform=" translate(-50, -50)"/>
  </g>
  <g id="svg_19" transform="matrix(0 2.4 -2.4 0 59.96 175.04)">
   <path d="m94.75,50c0,6.21 -5.24,11.25 -11.7,11.25l-66.1,0c-6.46,0 -11.7,-5.04 -11.7,-11.25l0,0c0,-6.21 5.24,-11.25 11.7,-11.25l66.1,0c6.46,0 11.7,5.04 11.7,11.25l0,0z" fill="rgb(0,0,0)" fill-rule="nonzero" id="svg_20" stroke="rgb(0,0,0)" stroke-dashoffset="0" stroke-miterlimit="4" stroke-width="0" transform=" translate(-50, -50)"/>
  </g>
  <g id="svg_21" transform="matrix(0 0 0 0 0 0)">
   <g id="svg_22"/>
  </g>
  <g id="svg_23" transform="matrix(0 0 0 0 0 0)">
   <g id="svg_24"/>
  </g>
  <g id="svg_25" transform="matrix(0 2.4 -2.4 0 95.57 937.15)">
   <path d="m94.75,50c0,6.21 -5.24,11.25 -11.7,11.25l-66.1,0c-6.46,0 -11.7,-5.04 -11.7,-11.25l0,0c0,-6.21 5.24,-11.25 11.7,-11.25l66.1,0c6.46,0 11.7,5.04 11.7,11.25l0,0z" fill="rgb(0,0,0)" fill-rule="nonzero" id="svg_26" stroke="rgb(0,0,0)" stroke-dashoffset="0" stroke-miterlimit="4" stroke-width="0" transform=" translate(-50, -50)"/>
  </g>
  <g id="svg_27" transform="matrix(9.64 0 0 6.27 524.13 556.24)">
   <path d="m90.38,90.38l-80.75,0l0,-80.75l80.75,0l0,80.75zm-78.75,-2l76.75,0l0,-76.75l-76.75,0l0,76.75z" fill="rgb(0,0,0)" fill-rule="nonzero" id="svg_28" stroke="rgb(0,0,0)" stroke-dashoffset="0" stroke-miterlimit="4" stroke-width="0" transform=" translate(-50, -50)"/>
  </g>
  <g id="svg_29" transform="matrix(9.5 0 0 5.97 524.8 556.27)">
   <path d="m90.38,90.38l-80.75,0l0,-80.75l80.75,0l0,80.75zm-78.75,-2l76.75,0l0,-76.75l-76.75,0l0,76.75z" fill="rgb(0,0,0)" fill-rule="nonzero" id="svg_30" stroke="rgb(0,0,0)" stroke-dashoffset="0" stroke-miterlimit="4" stroke-width="0" transform=" translate(-50, -50)"/>
  </g>
  <g id="77286ccc-6deb-4a6f-937c-de0983dd6e2b" transform="matrix(10.07 0 0 0.31 520.44 556.03)">
   <rect fill="rgb(0,0,0)" fill-rule="nonzero" height="74.33" id="svg_31" stroke="rgb(0,0,0)" stroke-dashoffset="0" stroke-miterlimit="4" stroke-width="0" width="74.33" x="-37.17" y="-37.17"/>
  </g>
  <g id="06bc8788-76e3-49bf-88d9-93b656d77855" transform="matrix(9.82 0 0 2.96 525.2 677)">
   <rect fill="rgb(255,117,0)" fill-rule="nonzero" height="74.33" id="svg_32" stroke="rgb(0,0,0)" stroke-dashoffset="0" stroke-miterlimit="4" stroke-width="0" width="74.33" x="-37.17" y="-37.17"/>
  </g>
  <g id="svg_1" transform="matrix(9.82 0 0 2.96 524.76 435.18)">
   <rect fill="rgb(255,117,0)" fill-rule="nonzero" height="74.33" id="svg_33" stroke="rgb(0,0,0)" stroke-dashoffset="0" stroke-miterlimit="4" stroke-width="0" width="74.33" x="-37.16" y="-37.16"/>
  </g>
  <text fill="#000000" font-family="Helvetica" font-size="24" font-weight="bold" id="svg_34" stroke="#000000" stroke-width="0" text-anchor="middle" transform="matrix(10.449 0 0 9.02372 -3621.83 -3411.62)" x="396.25" xml:space="preserve" y="434.29">33</text>
  <text fill="#000000" font-family="Helvetica" font-size="24" font-weight="bold" id="svg_35" stroke="#000000" stroke-width="0" text-anchor="middle" transform="matrix(1 0 0 1 0 0) matrix(8.37319 0 0 8.48976 -3016.77 -4715.11)" x="422.43" xml:space="preserve" y="643.52">1203</text>
 </g>
</svg>