<svg width="330" height="330" xmlns="http://www.w3.org/2000/svg" xmlns:xlink="http://www.w3.org/1999/xlink" xml:space="preserve" overflow="hidden"><g transform="translate(-1721 -1068)"><path d="M1988.92 1324.47 1988.92 1296.97 2029.31 1300.41 2002.36 1258.95 2018.86 1263.39 1999.44 1233.76 2011.43 1235.27 1982.9 1193.78 1968.26 1215.16 1939.11 1170.47 1957.74 1172.81 1913.5 1107.46 1869.26 1172.78 1887.89 1170.44 1857.61 1216.91 1883.22 1210.04 1841.31 1275.14 1903.19 1263.49 1903.19 1305.81C1882.84 1306.25 1863.86 1310.69 1849.05 1320.18 1862.8 1327.32 1877.34 1339.6 1890.61 1360.19L2037.25 1360.19C2026.18 1346.13 2008.96 1333.82 1988.92 1324.47ZM1967.4 1216.4 1957.36 1231.07 1943.61 1209.93ZM1956.33 1269.92 1936.5 1300.41 1975.38 1296.97 1975.38 1318.94C1957.71 1312.26 1939.2 1308.06 1920.38 1306.46L1920.38 1263.49Z"/><path d="M1831.65 1323.96 1831 1323.96 1831 1312.06 1848.19 1315.5 1835.61 1292.33 1844.75 1294.88 1833.92 1278.41 1840.59 1279.23 1824.13 1257.06 1809 1279.17 1815.63 1278.34 1809.79 1287.24 1796.9 1266.62 1811.06 1270.43 1794.32 1244.96 1804.63 1246.23 1780.16 1210.52 1755.68 1246.17 1766 1244.89 1749.26 1270.37 1763.42 1266.55 1740.25 1302.23 1772.56 1298.31 1772.56 1332.69C1758.24 1339.23 1745.38 1348.58 1734.75 1360.19L1878.16 1360.19C1862.59 1338.36 1845.75 1328.32 1831.65 1323.96ZM1782.88 1328.67 1782.88 1298.31 1809.86 1301.41 1803.5 1315.5 1820.69 1312.06 1820.69 1323.1C1807.86 1322.74 1795.06 1324.63 1782.88 1328.67Z"/><g><g><g><path d="M73.9999 24.6666C46.7124 24.6666 24.6666 46.7124 24.6666 73.9999 24.6666 101.287 46.7124 123.333 73.9999 123.333 101.287 123.333 123.333 101.287 123.333 73.9999 123.333 46.7124 101.287 24.6666 73.9999 24.6666ZM73.9999 132.583C41.6249 132.583 15.4166 106.375 15.4166 73.9999 15.4166 41.6249 41.6249 15.4166 73.9999 15.4166 106.375 15.4166 132.583 41.6249 132.583 73.9999 132.583 106.375 106.375 132.583 73.9999 132.583Z" transform="matrix(1 0 0 1 1730 1074)"/><path d="M104.833 61.6666 86.3332 61.6666 86.3332 43.1666C86.3332 39.7749 83.5582 37 80.1666 37L67.8332 37C64.4416 37 61.6666 39.7749 61.6666 43.1666L61.6666 61.6666 43.1666 61.6666C39.7749 61.6666 37 64.4416 37 67.8332L37 80.1666C37 83.5582 39.7749 86.3332 43.1666 86.3332L61.6666 86.3332 61.6666 104.833C61.6666 108.225 64.4416 111 67.8332 111L80.1666 111C83.5582 111 86.3332 108.225 86.3332 104.833L86.3332 86.3332 104.833 86.3332C108.225 86.3332 111 83.5582 111 80.1666L111 67.8332C111 64.4416 108.225 61.6666 104.833 61.6666Z" transform="matrix(1 0 0 1 1730 1074)"/></g></g></g></g></svg>