<svg width="85" height="84" xmlns="http://www.w3.org/2000/svg" xmlns:xlink="http://www.w3.org/1999/xlink" xml:space="preserve" overflow="hidden"><g transform="translate(-504 -207)"><path d="M25.375 73.5 58.625 73.5 58.625 78.75 25.375 78.75Z" transform="matrix(1.0119 0 0 1 504 207)"/><path d="M57.75 21.875 55.125 21.875C55.1263 15.6371 50.7369 10.2601 44.625 9.0125L44.625 5.25 39.375 5.25 39.375 9.0125C33.2631 10.2601 28.8737 15.6371 28.875 21.875L26.25 21.875 26.25 25.375 57.75 25.375Z" transform="matrix(1.0119 0 0 1 504 207)"/><path d="M25.375 49.875 25.375 36.75 19.25 37.625 19.25 41.125 15.75 41.125 15.75 45.5 19.25 45.5 19.25 49 25.375 49.875Z" transform="matrix(1.0119 0 0 1 504 207)"/><path d="M68.25 41.125 64.75 41.125 64.75 37.625 58.625 36.75 58.625 49.875 64.75 49 64.75 45.5 68.25 45.5 68.25 41.125Z" transform="matrix(1.0119 0 0 1 504 207)"/><path d="M28.875 28.875 28.875 70 55.125 70 55.125 28.875ZM42 50.75C37.6507 50.75 34.125 47.2243 34.125 42.875 34.125 38.5257 37.6507 35 42 35 46.3493 35 49.875 38.5257 49.875 42.875 49.875 47.2243 46.3493 50.75 42 50.75Z" transform="matrix(1.0119 0 0 1 504 207)"/><path d="M43.4805 46.1178 45.3259 43.8034 44.667 40.9168 42 39.6322 39.333 40.9168 38.6741 43.8034 40.5195 46.1178 43.4805 46.1178Z" transform="matrix(1.0119 0 0 1 504 207)"/></g></svg>